<svg version="1.1" xmlns="http://www.w3.org/2000/svg" xmlns:xlink="http://www.w3.org/1999/xlink" x="0px" y="0px"

	 viewBox="0 0 32 32" xml:space="preserve">

<g>

	<path class="st0" d="M17,28l-2,0V8.1c0-0.9,0.7-3.2,3.8-3.2h11.4v20.9H18.9C17.1,25.8,17,27.6,17,28z M18.8,6.9

		C17.1,6.9,17,8,17,8.1v16.1c0.5-0.3,1.2-0.5,1.9-0.5h9.2V6.9H18.8z"/>

</g>

<g>

	<path class="st0" d="M15,28c0-0.4-0.1-2.3-1.9-2.3H1.8V4.9h11.4c3.1,0,3.8,2.3,3.8,3.2V28L15,28z M3.8,23.8h9.2

		c0.8,0,1.4,0.2,1.9,0.5V8.1c0-0.4-0.2-1.2-1.8-1.2H3.8V23.8z"/>

</g>

</svg>