<svg version="1.1" xmlns="http://www.w3.org/2000/svg" xmlns:xlink="http://www.w3.org/1999/xlink" x="0px" y="0px" viewBox="0 0 32 32" sxml:space="preserve">


<path class="st0" d="M15.4,27.4c-6.5,0-11.7-5.3-11.7-11.7S8.9,3.9,15.4,3.9c6.5,0,11.7,5.3,11.7,11.7S21.8,27.4,15.4,27.4z

	 M15.4,5.9c-5.4,0-9.7,4.4-9.7,9.7c0,5.4,4.4,9.7,9.7,9.7s9.7-4.4,9.7-9.7C25.1,10.2,20.7,5.9,15.4,5.9z"/>

<g>

	<path d="M11.5,12.6c0-0.6,0.2-1.1,0.5-1.7c0.3-0.6,0.8-1.1,1.4-1.4c0.6-0.4,1.3-0.6,2.2-0.6c0.8,0,1.4,0.2,2,0.5

		c0.6,0.3,1,0.7,1.4,1.3c0.3,0.5,0.5,1.1,0.5,1.8c0,0.5-0.1,0.9-0.3,1.3c-0.2,0.4-0.4,0.7-0.6,1c-0.3,0.3-0.7,0.7-1.3,1.4

		c-0.2,0.2-0.3,0.3-0.4,0.5c-0.1,0.1-0.2,0.3-0.2,0.4c-0.1,0.1-0.1,0.2-0.1,0.3c0,0.1-0.1,0.3-0.1,0.6c-0.1,0.6-0.4,0.9-0.9,0.9

		c-0.3,0-0.5-0.1-0.7-0.3c-0.2-0.2-0.3-0.5-0.3-0.9c0-0.5,0.1-0.9,0.2-1.3c0.1-0.4,0.3-0.7,0.5-1c0.2-0.3,0.5-0.6,0.9-1

		c0.3-0.3,0.6-0.6,0.7-0.8c0.1-0.2,0.3-0.4,0.4-0.6c0.1-0.2,0.2-0.4,0.2-0.7c0-0.5-0.2-0.9-0.5-1.2s-0.7-0.5-1.2-0.5

		c-0.6,0-1,0.2-1.3,0.5s-0.5,0.8-0.7,1.5c-0.2,0.7-0.5,1-1,1c-0.3,0-0.5-0.1-0.7-0.4C11.6,13.1,11.5,12.9,11.5,12.6z M15.3,22.4

		c-0.3,0-0.6-0.1-0.8-0.4c-0.2-0.2-0.4-0.6-0.4-1c0-0.4,0.1-0.7,0.3-0.9c0.2-0.3,0.5-0.4,0.9-0.4c0.3,0,0.6,0.1,0.8,0.4

		c0.2,0.3,0.3,0.6,0.3,0.9c0,0.4-0.1,0.7-0.4,1C15.9,22.2,15.6,22.4,15.3,22.4z"/>

</g>

</svg>